# xmcd CD database file
#
# Track frame offsets:
#	150
#	10066
#	23173
#	42839
#	54013
#	63955
#	79018
#	90265
#	104248
#	122994
#	135682
#	149327
#
# Disc length: 2115 seconds
#
# Revision: 0
# Processed by: cddbd v1.5.2PL0 Copyright (c) Steve Scherf et al.
# Submitted via: ACXtractor (MTCDDB.DLL V2003.07.15)
#
DISCID=9708410c
DTITLE=Matt Manning - Borderline
DYEAR=2008
DGENRE=Country
TTITLE0=What is Wrong with That
TTITLE1=My Bulldog Loves Bitumen
TTITLE2=The Saddle
TTITLE3=Someday I'll Sober Up
TTITLE4=Grew Up Hard and grew up Quick
TTITLE5=Song and Dance Man
TTITLE6=Prissy
TTITLE7=Highway One
TTITLE8=Old Bush Mates
TTITLE9=Mudcarter Blues
TTITLE10=Bush Girl
TTITLE11=It takes People Like You
EXTD=ID3G:   2 YEAR: 2008
EXTT0=
EXTT1=
EXTT2=
EXTT3=
EXTT4=
EXTT5=
EXTT6=
EXTT7=
EXTT8=
EXTT9=
EXTT10=
EXTT11=
PLAYORDER=
